<svg width="210" height="210"
     xmlns="http://www.w3.org/2000/svg">
    <path fill="none" stroke="black" d="M 105 105 m -70.7 -70.7 a 100 100 0 0 0 141.4 0 a 100 100 0 0 0 0 141.4 a 100 100 0 0 0 -141.4 0 a 100 100 0 0 1 0 -141.4 z"></path>
    <path fill="none" stroke="black" d="M 105 105 m -94.3 -33.3 a 150 150 0 0 0 94.3 33.3"/>
    <path fill="none" stroke="black" d="M 105 105 m -94.3 33.3 a 150 150 0 0 1 94.3 -33.3"/>
    <line stroke="black" x1="105" y1="105" x2="146.42" y2="105"/>
</svg>